# MagicaVoxel @ Ephtracy

# group
g floor dirt 10x

# material
mtllib floor dirt 10x.mtl
usemtl palette

# normals
vn -1 0 0
vn 1 0 0
vn 0 0 1
vn 0 0 -1
vn 0 -1 0
vn 0 1 0

# texcoords
vt 0.970703 0.5
vt 0.974609 0.5
vt 0.978516 0.5

# verts
v -5 0 5
v -5 0 -5
v -5 9 5
v -5 9 2
v -5 9 1
v -5 9 -2
v -5 9 -3
v -5 9 -5
v -5 10 5
v -5 10 2
v -5 10 1
v -5 10 -2
v -5 10 -3
v -5 10 -5
v 5 0 5
v 5 0 -5
v 5 9 5
v 5 9 4
v 5 9 3
v 5 9 2
v 5 9 1
v 5 9 -0
v 5 9 -2
v 5 9 -3
v 5 9 -4
v 5 10 5
v 5 10 4
v 5 10 3
v 5 10 2
v 5 10 1
v 5 10 -0
v 5 10 -2
v 5 10 -3
v 5 10 -4
v 5 10 -5
v -5 0 5
v -5 9 5
v -5 10 5
v -4 9 5
v -4 10 5
v -3 9 5
v -3 10 5
v 1 9 5
v 1 10 5
v 2 9 5
v 2 10 5
v 3 9 5
v 3 10 5
v 4 9 5
v 4 10 5
v 5 0 5
v 5 9 5
v 5 10 5
v -5 0 -5
v -5 9 -5
v -5 10 -5
v -4 9 -5
v -4 10 -5
v -3 9 -5
v -3 10 -5
v -2 9 -5
v -2 10 -5
v -1 9 -5
v -1 10 -5
v 1 9 -5
v 1 10 -5
v 2 9 -5
v 2 10 -5
v 3 9 -5
v 3 10 -5
v 5 0 -5
v 5 10 -5
v -5 0 5
v 5 0 5
v -5 0 -5
v 5 0 -5
v -5 10 5
v -4 10 5
v -3 10 5
v 1 10 5
v 2 10 5
v 3 10 5
v 4 10 5
v 5 10 5
v -4 10 4
v -3 10 4
v -2 10 4
v -1 10 4
v 0 10 4
v 1 10 4
v 2 10 4
v 3 10 4
v 4 10 4
v 5 10 4
v -4 10 3
v -3 10 3
v -2 10 3
v -1 10 3
v 0 10 3
v 1 10 3
v 2 10 3
v 4 10 3
v 5 10 3
v -5 10 2
v -4 10 2
v -2 10 2
v -1 10 2
v 0 10 2
v 1 10 2
v 2 10 2
v 3 10 2
v 4 10 2
v 5 10 2
v -5 10 1
v -4 10 1
v -3 10 1
v -2 10 1
v -1 10 1
v 0 10 1
v 1 10 1
v 2 10 1
v 3 10 1
v 4 10 1
v 5 10 1
v -4 10 -0
v -3 10 -0
v -2 10 -0
v -1 10 -0
v 0 10 -0
v 2 10 -0
v 3 10 -0
v 4 10 -0
v 5 10 -0
v -4 10 -1
v -3 10 -1
v -1 10 -1
v 0 10 -1
v 1 10 -1
v 3 10 -1
v 4 10 -1
v -5 10 -2
v -4 10 -2
v -3 10 -2
v -2 10 -2
v -1 10 -2
v 0 10 -2
v 1 10 -2
v 2 10 -2
v 3 10 -2
v 4 10 -2
v 5 10 -2
v -5 10 -3
v -4 10 -3
v -3 10 -3
v -2 10 -3
v -1 10 -3
v 0 10 -3
v 1 10 -3
v 2 10 -3
v 4 10 -3
v 5 10 -3
v -4 10 -4
v -3 10 -4
v -2 10 -4
v -1 10 -4
v 0 10 -4
v 1 10 -4
v 2 10 -4
v 3 10 -4
v 4 10 -4
v 5 10 -4
v -5 10 -5
v -4 10 -5
v -3 10 -5
v -2 10 -5
v -1 10 -5
v 1 10 -5
v 2 10 -5
v 3 10 -5
v 5 10 -5

# faces
f 3/1/1 2/1/1 1/1/1
f 4/1/1 2/1/1 3/1/1
f 5/1/1 2/1/1 4/1/1
f 6/1/1 2/1/1 5/1/1
f 7/1/1 2/1/1 6/1/1
f 8/1/1 2/1/1 7/1/1
f 9/2/1 4/2/1 3/2/1
f 10/1/1 5/1/1 4/1/1
f 10/2/1 4/2/1 9/2/1
f 11/2/1 6/2/1 5/2/1
f 11/1/1 5/1/1 10/1/1
f 12/1/1 7/1/1 6/1/1
f 12/2/1 6/2/1 11/2/1
f 13/2/1 8/2/1 7/2/1
f 13/1/1 7/1/1 12/1/1
f 14/2/1 8/2/1 13/2/1
f 15/1/2 16/1/2 17/1/2
f 17/1/2 16/1/2 18/1/2
f 18/1/2 16/1/2 19/1/2
f 19/1/2 16/1/2 20/1/2
f 20/1/2 16/1/2 21/1/2
f 21/1/2 16/1/2 22/1/2
f 22/1/2 16/1/2 23/1/2
f 23/1/2 16/1/2 24/1/2
f 24/1/2 16/1/2 25/1/2
f 17/2/2 18/2/2 26/2/2
f 18/3/2 19/3/2 27/3/2
f 26/2/2 18/2/2 27/2/2
f 19/1/2 20/1/2 28/1/2
f 27/3/2 19/3/2 28/3/2
f 20/2/2 21/2/2 29/2/2
f 28/1/2 20/1/2 29/1/2
f 21/1/2 22/1/2 30/1/2
f 29/2/2 21/2/2 30/2/2
f 22/2/2 23/2/2 31/2/2
f 30/1/2 22/1/2 31/1/2
f 23/1/2 24/1/2 32/1/2
f 31/2/2 23/2/2 32/2/2
f 24/2/2 25/2/2 33/2/2
f 32/1/2 24/1/2 33/1/2
f 25/1/2 16/1/2 34/1/2
f 33/2/2 25/2/2 34/2/2
f 34/1/2 16/1/2 35/1/2
f 39/1/3 37/1/3 36/1/3
f 39/2/3 38/2/3 37/2/3
f 40/2/3 38/2/3 39/2/3
f 41/1/3 39/1/3 36/1/3
f 41/1/3 40/1/3 39/1/3
f 42/1/3 40/1/3 41/1/3
f 43/1/3 41/1/3 36/1/3
f 43/2/3 42/2/3 41/2/3
f 44/2/3 42/2/3 43/2/3
f 45/1/3 43/1/3 36/1/3
f 45/1/3 44/1/3 43/1/3
f 46/1/3 44/1/3 45/1/3
f 47/1/3 45/1/3 36/1/3
f 47/2/3 46/2/3 45/2/3
f 48/2/3 46/2/3 47/2/3
f 49/1/3 47/1/3 36/1/3
f 49/1/3 48/1/3 47/1/3
f 50/1/3 48/1/3 49/1/3
f 51/1/3 49/1/3 36/1/3
f 52/2/3 50/2/3 49/2/3
f 52/1/3 49/1/3 51/1/3
f 53/2/3 50/2/3 52/2/3
f 54/1/4 55/1/4 57/1/4
f 55/2/4 56/2/4 57/2/4
f 57/2/4 56/2/4 58/2/4
f 54/1/4 57/1/4 59/1/4
f 57/1/4 58/1/4 59/1/4
f 59/1/4 58/1/4 60/1/4
f 54/1/4 59/1/4 61/1/4
f 59/2/4 60/2/4 61/2/4
f 61/2/4 60/2/4 62/2/4
f 54/1/4 61/1/4 63/1/4
f 61/3/4 62/3/4 63/3/4
f 63/3/4 62/3/4 64/3/4
f 54/1/4 63/1/4 65/1/4
f 63/2/4 64/2/4 65/2/4
f 65/2/4 64/2/4 66/2/4
f 54/1/4 65/1/4 67/1/4
f 65/1/4 66/1/4 67/1/4
f 67/1/4 66/1/4 68/1/4
f 54/1/4 67/1/4 69/1/4
f 67/2/4 68/2/4 69/2/4
f 69/2/4 68/2/4 70/2/4
f 54/1/4 69/1/4 71/1/4
f 69/1/4 70/1/4 71/1/4
f 71/1/4 70/1/4 72/1/4
f 75/1/5 74/1/5 73/1/5
f 76/1/5 74/1/5 75/1/5
f 77/2/6 78/2/6 85/2/6
f 78/1/6 79/1/6 85/1/6
f 79/2/6 80/2/6 86/2/6
f 85/1/6 79/1/6 86/1/6
f 86/2/6 80/2/6 87/2/6
f 87/2/6 80/2/6 88/2/6
f 88/2/6 80/2/6 89/2/6
f 80/1/6 81/1/6 90/1/6
f 89/2/6 80/2/6 90/2/6
f 81/2/6 82/2/6 91/2/6
f 90/1/6 81/1/6 91/1/6
f 82/1/6 83/1/6 92/1/6
f 91/2/6 82/2/6 92/2/6
f 83/2/6 84/2/6 93/2/6
f 92/1/6 83/1/6 93/1/6
f 93/2/6 84/2/6 94/2/6
f 77/2/6 85/2/6 95/2/6
f 85/2/6 86/2/6 95/2/6
f 86/1/6 87/1/6 96/1/6
f 95/2/6 86/2/6 96/2/6
f 87/3/6 88/3/6 97/3/6
f 96/1/6 87/1/6 97/1/6
f 88/2/6 89/2/6 98/2/6
f 97/3/6 88/3/6 98/3/6
f 89/1/6 90/1/6 99/1/6
f 98/2/6 89/2/6 99/2/6
f 90/2/6 91/2/6 100/2/6
f 99/1/6 90/1/6 100/1/6
f 91/1/6 92/1/6 101/1/6
f 100/2/6 91/2/6 101/2/6
f 93/3/6 94/3/6 102/3/6
f 92/2/6 93/2/6 102/2/6
f 102/3/6 94/3/6 103/3/6
f 77/2/6 95/2/6 104/2/6
f 95/1/6 96/1/6 105/1/6
f 104/2/6 95/2/6 105/2/6
f 96/2/6 97/2/6 106/2/6
f 97/1/6 98/1/6 106/1/6
f 99/2/6 100/2/6 107/2/6
f 106/1/6 98/1/6 107/1/6
f 98/2/6 99/2/6 107/2/6
f 107/2/6 100/2/6 108/2/6
f 100/1/6 101/1/6 109/1/6
f 108/2/6 100/2/6 109/2/6
f 101/1/6 92/1/6 110/1/6
f 109/1/6 101/1/6 110/1/6
f 92/2/6 102/2/6 111/2/6
f 110/1/6 92/1/6 111/1/6
f 102/1/6 103/1/6 112/1/6
f 111/2/6 102/2/6 112/2/6
f 112/1/6 103/1/6 113/1/6
f 104/1/6 105/1/6 114/1/6
f 105/1/6 96/1/6 115/1/6
f 114/1/6 105/1/6 115/1/6
f 96/2/6 106/2/6 116/2/6
f 115/1/6 96/1/6 116/1/6
f 106/2/6 107/2/6 116/2/6
f 116/2/6 107/2/6 117/2/6
f 107/1/6 108/1/6 118/1/6
f 117/2/6 107/2/6 118/2/6
f 108/2/6 109/2/6 119/2/6
f 118/1/6 108/1/6 119/1/6
f 109/3/6 110/3/6 120/3/6
f 119/2/6 109/2/6 120/2/6
f 110/2/6 111/2/6 121/2/6
f 120/3/6 110/3/6 121/3/6
f 111/1/6 112/1/6 122/1/6
f 121/2/6 111/2/6 122/2/6
f 112/2/6 113/2/6 123/2/6
f 122/1/6 112/1/6 123/1/6
f 123/2/6 113/2/6 124/2/6
f 114/2/6 115/2/6 125/2/6
f 115/1/6 116/1/6 125/1/6
f 116/3/6 117/3/6 126/3/6
f 125/1/6 116/1/6 126/1/6
f 117/1/6 118/1/6 127/1/6
f 126/3/6 117/3/6 127/3/6
f 119/2/6 120/2/6 128/2/6
f 127/1/6 118/1/6 128/1/6
f 118/2/6 119/2/6 128/2/6
f 128/2/6 120/2/6 129/2/6
f 122/2/6 123/2/6 130/2/6
f 121/2/6 122/2/6 130/2/6
f 120/1/6 121/1/6 130/1/6
f 130/2/6 123/2/6 131/2/6
f 123/1/6 124/1/6 132/1/6
f 131/2/6 123/2/6 132/2/6
f 132/1/6 124/1/6 133/1/6
f 125/2/6 126/2/6 134/2/6
f 114/2/6 125/2/6 134/2/6
f 126/1/6 127/1/6 135/1/6
f 134/2/6 126/2/6 135/2/6
f 128/1/6 129/1/6 136/1/6
f 127/2/6 128/2/6 136/2/6
f 129/2/6 120/2/6 137/2/6
f 136/1/6 129/1/6 137/1/6
f 130/1/6 131/1/6 138/1/6
f 137/2/6 120/2/6 138/2/6
f 120/1/6 130/1/6 138/1/6
f 131/3/6 132/3/6 139/3/6
f 138/1/6 131/1/6 139/1/6
f 132/2/6 133/2/6 140/2/6
f 139/3/6 132/3/6 140/3/6
f 114/2/6 134/2/6 141/2/6
f 134/1/6 135/1/6 142/1/6
f 141/2/6 134/2/6 142/2/6
f 135/1/6 127/1/6 143/1/6
f 142/1/6 135/1/6 143/1/6
f 127/2/6 136/2/6 144/2/6
f 143/1/6 127/1/6 144/1/6
f 136/3/6 137/3/6 145/3/6
f 144/2/6 136/2/6 145/2/6
f 137/1/6 138/1/6 146/1/6
f 145/3/6 137/3/6 146/3/6
f 138/2/6 139/2/6 147/2/6
f 146/1/6 138/1/6 147/1/6
f 147/2/6 139/2/6 148/2/6
f 139/1/6 140/1/6 149/1/6
f 148/2/6 139/2/6 149/2/6
f 140/2/6 133/2/6 150/2/6
f 149/1/6 140/1/6 150/1/6
f 150/2/6 133/2/6 151/2/6
f 141/1/6 142/1/6 152/1/6
f 142/3/6 143/3/6 153/3/6
f 152/1/6 142/1/6 153/1/6
f 143/2/6 144/2/6 154/2/6
f 153/3/6 143/3/6 154/3/6
f 144/1/6 145/1/6 155/1/6
f 154/2/6 144/2/6 155/2/6
f 145/2/6 146/2/6 156/2/6
f 155/1/6 145/1/6 156/1/6
f 146/2/6 147/2/6 156/2/6
f 156/2/6 147/2/6 157/2/6
f 147/1/6 148/1/6 158/1/6
f 157/2/6 147/2/6 158/2/6
f 148/2/6 149/2/6 159/2/6
f 158/1/6 148/1/6 159/1/6
f 149/2/6 150/2/6 159/2/6
f 150/1/6 151/1/6 160/1/6
f 159/2/6 150/2/6 160/2/6
f 160/1/6 151/1/6 161/1/6
f 152/2/6 153/2/6 162/2/6
f 153/2/6 154/2/6 162/2/6
f 154/1/6 155/1/6 163/1/6
f 162/2/6 154/2/6 163/2/6
f 156/1/6 157/1/6 163/1/6
f 155/1/6 156/1/6 163/1/6
f 163/1/6 157/1/6 164/1/6
f 164/1/6 157/1/6 165/1/6
f 157/3/6 158/3/6 166/3/6
f 165/1/6 157/1/6 166/1/6
f 158/2/6 159/2/6 167/2/6
f 166/3/6 158/3/6 167/3/6
f 159/1/6 160/1/6 168/1/6
f 167/2/6 159/2/6 168/2/6
f 168/1/6 160/1/6 169/1/6
f 160/2/6 161/2/6 170/2/6
f 169/1/6 160/1/6 170/1/6
f 170/2/6 161/2/6 171/2/6
f 152/2/6 162/2/6 172/2/6
f 162/1/6 163/1/6 173/1/6
f 172/2/6 162/2/6 173/2/6
f 163/2/6 164/2/6 174/2/6
f 173/1/6 163/1/6 174/1/6
f 164/3/6 165/3/6 175/3/6
f 174/2/6 164/2/6 175/2/6
f 166/2/6 167/2/6 176/2/6
f 175/3/6 165/3/6 176/3/6
f 165/2/6 166/2/6 176/2/6
f 167/1/6 168/1/6 177/1/6
f 176/2/6 167/2/6 177/2/6
f 168/2/6 169/2/6 178/2/6
f 177/1/6 168/1/6 178/1/6
f 170/1/6 171/1/6 179/1/6
f 178/2/6 169/2/6 179/2/6
f 169/1/6 170/1/6 179/1/6
f 179/1/6 171/1/6 180/1/6
