# MagicaVoxel @ Ephtracy

# group
g stair 8x8x8

# material
mtllib stair 8x8x8.mtl
usemtl palette

# normals
vn -1 0 0
vn 1 0 0
vn 0 0 1
vn 0 0 -1
vn 0 -1 0
vn 0 1 0

# texcoords
vt 0.306641 0.5

# verts
v -4 0 4
v -4 0 -4
v -4 1 4
v -4 1 -4
v -3 1 4
v -3 1 -4
v -3 2 4
v -3 2 -4
v -2 2 4
v -2 2 -4
v -2 3 4
v -2 3 -4
v -1 3 4
v -1 3 -4
v -1 4 4
v -1 4 -4
v 0 4 4
v 0 4 -4
v 0 5 4
v 0 5 -4
v 1 5 4
v 1 5 -4
v 1 6 4
v 1 6 -4
v 2 6 4
v 2 6 -4
v 2 7 4
v 2 7 -4
v 3 7 4
v 3 7 -4
v 3 8 4
v 3 8 -4
v 4 0 4
v 4 0 -4
v 4 8 4
v 4 8 -4
v -4 0 4
v -4 1 4
v -3 1 4
v -3 2 4
v -2 2 4
v -2 3 4
v -1 3 4
v -1 4 4
v 0 4 4
v 0 5 4
v 1 5 4
v 1 6 4
v 2 6 4
v 2 7 4
v 3 7 4
v 3 8 4
v 4 0 4
v 4 8 4
v -4 0 -4
v -4 1 -4
v -3 1 -4
v -3 2 -4
v -2 2 -4
v -2 3 -4
v -1 3 -4
v -1 4 -4
v 0 4 -4
v 0 5 -4
v 1 5 -4
v 1 6 -4
v 2 6 -4
v 2 7 -4
v 3 7 -4
v 3 8 -4
v 4 0 -4
v 4 8 -4
v -4 0 4
v 4 0 4
v -4 0 -4
v 4 0 -4
v -4 1 4
v -3 1 4
v -4 1 -4
v -3 1 -4
v -3 2 4
v -2 2 4
v -3 2 -4
v -2 2 -4
v -2 3 4
v -1 3 4
v -2 3 -4
v -1 3 -4
v -1 4 4
v 0 4 4
v -1 4 -4
v 0 4 -4
v 0 5 4
v 1 5 4
v 0 5 -4
v 1 5 -4
v 1 6 4
v 2 6 4
v 1 6 -4
v 2 6 -4
v 2 7 4
v 3 7 4
v 2 7 -4
v 3 7 -4
v 3 8 4
v 4 8 4
v 3 8 -4
v 4 8 -4

# faces
f 3/1/1 2/1/1 1/1/1
f 4/1/1 2/1/1 3/1/1
f 7/1/1 6/1/1 5/1/1
f 8/1/1 6/1/1 7/1/1
f 11/1/1 10/1/1 9/1/1
f 12/1/1 10/1/1 11/1/1
f 15/1/1 14/1/1 13/1/1
f 16/1/1 14/1/1 15/1/1
f 19/1/1 18/1/1 17/1/1
f 20/1/1 18/1/1 19/1/1
f 23/1/1 22/1/1 21/1/1
f 24/1/1 22/1/1 23/1/1
f 27/1/1 26/1/1 25/1/1
f 28/1/1 26/1/1 27/1/1
f 31/1/1 30/1/1 29/1/1
f 32/1/1 30/1/1 31/1/1
f 33/1/2 34/1/2 35/1/2
f 35/1/2 34/1/2 36/1/2
f 39/1/3 38/1/3 37/1/3
f 41/1/3 40/1/3 39/1/3
f 43/1/3 42/1/3 41/1/3
f 45/1/3 44/1/3 43/1/3
f 47/1/3 46/1/3 45/1/3
f 49/1/3 48/1/3 47/1/3
f 51/1/3 50/1/3 49/1/3
f 53/1/3 39/1/3 37/1/3
f 53/1/3 52/1/3 51/1/3
f 53/1/3 51/1/3 49/1/3
f 53/1/3 49/1/3 47/1/3
f 53/1/3 47/1/3 45/1/3
f 53/1/3 45/1/3 43/1/3
f 53/1/3 43/1/3 41/1/3
f 53/1/3 41/1/3 39/1/3
f 54/1/3 52/1/3 53/1/3
f 55/1/4 56/1/4 57/1/4
f 57/1/4 58/1/4 59/1/4
f 59/1/4 60/1/4 61/1/4
f 61/1/4 62/1/4 63/1/4
f 63/1/4 64/1/4 65/1/4
f 65/1/4 66/1/4 67/1/4
f 67/1/4 68/1/4 69/1/4
f 55/1/4 57/1/4 71/1/4
f 69/1/4 70/1/4 71/1/4
f 67/1/4 69/1/4 71/1/4
f 65/1/4 67/1/4 71/1/4
f 63/1/4 65/1/4 71/1/4
f 61/1/4 63/1/4 71/1/4
f 59/1/4 61/1/4 71/1/4
f 57/1/4 59/1/4 71/1/4
f 71/1/4 70/1/4 72/1/4
f 75/1/5 74/1/5 73/1/5
f 76/1/5 74/1/5 75/1/5
f 77/1/6 78/1/6 79/1/6
f 79/1/6 78/1/6 80/1/6
f 81/1/6 82/1/6 83/1/6
f 83/1/6 82/1/6 84/1/6
f 85/1/6 86/1/6 87/1/6
f 87/1/6 86/1/6 88/1/6
f 89/1/6 90/1/6 91/1/6
f 91/1/6 90/1/6 92/1/6
f 93/1/6 94/1/6 95/1/6
f 95/1/6 94/1/6 96/1/6
f 97/1/6 98/1/6 99/1/6
f 99/1/6 98/1/6 100/1/6
f 101/1/6 102/1/6 103/1/6
f 103/1/6 102/1/6 104/1/6
f 105/1/6 106/1/6 107/1/6
f 107/1/6 106/1/6 108/1/6
